<?xml version="1.0" encoding="UTF-8" standalone="no"?>
<svg
   version="1.0"
   width="240.000000pt"
   height="240.000000pt"
   viewBox="0 0 240.000000 240.000000"
   preserveAspectRatio="xMidYMid meet"
   id="svg1"
   sodipodi:docname="icon.svg"
   inkscape:version="1.3.2 (091e20ef0f, 2023-11-25)"
   xmlns:inkscape="http://www.inkscape.org/namespaces/inkscape"
   xmlns:sodipodi="http://sodipodi.sourceforge.net/DTD/sodipodi-0.dtd"
   xmlns="http://www.w3.org/2000/svg"
   xmlns:svg="http://www.w3.org/2000/svg">
  <defs
     id="defs1" />
  <sodipodi:namedview
     id="namedview1"
     pagecolor="#ffffff"
     bordercolor="#000000"
     borderopacity="0.25"
     inkscape:showpageshadow="2"
     inkscape:pageopacity="0.0"
     inkscape:pagecheckerboard="0"
     inkscape:deskcolor="#d1d1d1"
     inkscape:document-units="pt"
     inkscape:zoom="0.7375"
     inkscape:cx="160"
     inkscape:cy="160"
     inkscape:window-width="2048"
     inkscape:window-height="1260"
     inkscape:window-x="0"
     inkscape:window-y="0"
     inkscape:window-maximized="0"
     inkscape:current-layer="svg1" />
  <g
     transform="translate(0.000000,240.000000) scale(0.100000,-0.100000)"
     fill="#000000"
     stroke="none"
     id="g1"
     style="fill:#4e9a06;fill-opacity:1">
    <path
       d="M544 2108 c-37 -57 -69 -110 -71 -118 -3 -12 163 -119 611 -394 339 -209 616 -382 616 -385 0 -3 -277 -177 -615 -385 -338 -208 -615 -383 -615 -387 0 -15 151 -219 161 -219 6 0 311 188 680 418 l669 417 -2 158 -3 159 -675 419 c-371 230 -678 419 -682 419 -4 0 -38 -46 -74 -102z"
       id="path1"
       style="fill:#4e9a06;fill-opacity:1" />
  </g>
</svg>
